
 #######                            #######                      
 #       ###### ###### #            #       #####  ###### ###### 
 #       #      #      #            #       #    # #      #      
 #####   #####  #####  #      ##### #####   #    # #####  #####  
 #       #      #      #            #       #####  #      #      
 #       #      #      #            #       #   #  #      #      
 #       ###### ###### ######       #       #    # ###### ###### 
                                                                 


Genre:Comedy | Romance 
Language:English
IMDb:http://www.imdb.com/title/tt1411238/
Source:Jailbait/ImagineThx.


Format : AVI
Format/Info : Audio Video Interleave
File size : 673 MiB
Duration : 1h 38mn
Overall bit rate : 954 Kbps


Video
Codec ID/Hint : XviD
Duration : 1h 38mn
Bit rate : 816 Kbps
Width : 688 pixels
Height : 384 pixels
Display aspect ratio : 16:9
Frame rate : 25.000 fps
Color space : YUV
Chroma subsampling : 4:2:0
Bit depth : 8 bits
Scan type : Progressive
Bits/(Pixel*Frame) : 0.124
Stream size : 576 MiB (86%)
Writing library : XviD 1.2.1 (UTC 2008-12-04)

Audio
ID : 1
Format : MPEG Audio
Format version : Version 1
Format profile : Layer 3
Codec ID : 55
Codec ID/Hint : MP3
Duration : 1h 38mn
Bit rate mode : Constant
Bit rate : 128 Kbps
Channel(s) : 2 channels
Sampling rate : 44.1 KHz
Stream size : 90.4 MiB (13%)
Alignment : Split accross interleaves
Interleave, duration : 40 ms (1.00 video frame)
Interleave, preload duration : 500 ms



Plot:
A guy and girl try to keep their relationship strictly physical, but it's not long before they learn that they want something more.


Greets:

INK,CRYS,IMAGINE,LKRG,FXG,3Li,FLAWL3SS,TA,iLLUSiON,ViSiON,LU,TheFalcon007,MYSTiC,PrisM,Noir,WBZ,LAP,Rx,Kingdom,SAFCuk009+Fabreezy,HDLiTE,TWiZTED,ExtraTorrentRG.ELEKTRI4KA,MAGNAT,CM8
And to all the other p2p grps past and present






================================== 
http://thepiratebay.org/user/hiest
==================================






Screen Shots:
 
http://www.postimg.com/29000/28447.jpg
 
http://www.postimg.com/29000/28449.jpg
 
http://www.postimg.com/29000/28450.jpg


 #######                            #######                      
 #       ###### ###### #            #       #####  ###### ###### 
 #       #      #      #            #       #    # #      #      
 #####   #####  #####  #      ##### #####   #    # #####  #####  
 #       #      #      #            #       #####  #      #      
 #       #      #      #            #       #   #  #      #      
 #       ###### ###### ######       #       #    # ###### ###### 
                                                                 
